<svg width="411" height="382" viewBox="0 0 411 382" fill="none" xmlns="http://www.w3.org/2000/svg">
<rect width="413" height="382" fill="#72B500"/>
<g clip-path="url(#clip0)">
<path d="M275.057 119.147C261.761 119.03 241.974 172.302 229.095 187.478C229.59 189.86 232.55 199.779 242.409 197.005C252.268 194.232 274.955 154.943 274.955 154.943L275.057 119.147Z" fill="#232833"/>
<path d="M224.555 175.945C228.134 183.269 236.784 179.983 234.319 172.43C228.814 155.66 214.363 119.123 214.363 119.123L207.302 117.331" fill="#F9CA9E"/>
<path d="M202.214 111.764C202.224 114.001 202.641 116.218 203.445 118.307C206.93 127.745 218.929 124.924 214.9 106.291L214.97 106.182C214.415 102.551 208.836 89.5218 207.649 89.7736C206.759 89.9512 206.185 90.6816 206.406 91.8408C204.942 88.6161 203.503 86.0023 202.959 86.114C201.752 86.3588 201.117 87.5944 202.262 89.5831C202.82 90.5654 203.911 94.2976 204.89 98.0123C202.662 93.3191 199.672 88.0063 198.971 88.2264C197.899 88.559 197.449 89.8343 198.694 91.7267C199.361 92.7798 201.004 97.1801 202.382 101.167C200.231 96.6717 197.693 92.1608 197.018 92.3792C195.841 92.7303 195.331 94.0221 196.65 95.895C197.77 97.502 201.09 107.911 202.214 111.764Z" fill="#F9CA9E"/>
<g opacity="0.2">
<path opacity="0.2" d="M263.298 166.268L257.982 166.387C268.177 159.109 288.119 127.623 295.171 110.971C295.4 111.185 295.619 111.41 295.825 111.647C306.269 123.381 263.298 166.268 263.298 166.268Z" fill="url(#paint0_linear)"/>
</g>
<path d="M335.288 242.594L339.067 242.073L340.462 252.198L336.684 252.72L335.288 242.594Z" fill="#4C4C4C"/>
<path d="M322.401 244.908L326.209 244.707L326.749 254.914L322.941 255.115L322.401 244.908Z" fill="#4C4C4C"/>
<path d="M274.205 247.866C274.205 247.866 283.5 255.062 311.949 255.062C340.397 255.062 342.449 249.587 342.449 249.587C342.449 249.587 336.136 223.239 338.745 185.946C342.278 135.479 345.868 120.646 331.99 111.371C331.99 111.371 317.321 124.816 298.506 124.816C281.006 124.816 281.817 113.071 281.817 113.071C271.534 111.356 280.009 219.443 274.205 247.866Z" fill="#8CADAD"/>
<path d="M280.414 119.451C284.02 126.209 298.766 132.245 303.017 132.245C307.267 132.245 333.253 118.432 332.447 112.463C329.813 93.0811 333.003 88.4384 335.206 72.5398C337.409 56.6411 335.383 52.1024 335.383 52.1024C336.121 37.0252 319.473 25.9825 302.934 28.9355C286.53 30.906 278.247 39.8535 278.549 57.0103C278.746 68.2714 280.232 88.142 280.835 110.17C280.902 112.494 280.414 119.451 280.414 119.451Z" fill="#F9CA9E"/>
<path style="mix-blend-mode:overlay" opacity="0.5" d="M303.016 132.245C307.272 132.245 333.257 118.432 332.447 112.489C330.368 97.0999 331.927 91.0015 333.777 81.1805L333.736 77.484C333.736 77.484 329.153 90.5544 329.153 97.0479C329.153 115.593 307.62 129.282 302.507 129.282C298.143 129.282 282.991 121.806 280.585 117.87C280.492 118.837 280.414 119.482 280.414 119.482C284.02 126.199 298.766 132.245 303.016 132.245Z" fill="url(#paint1_linear)"/>
<path d="M306.924 55.5285C308.667 54.7396 310.574 54.3829 312.484 54.4886C315.825 54.629 323.962 61.7673 323.203 62.412C322.84 62.7187 316.672 59.4953 314.578 58.8506C312.484 58.2059 307.158 58.4867 306.706 58.1956C306.254 57.9044 305.568 56.2303 306.924 55.5285Z" fill="#754C24"/>
<path d="M291.409 54.9878C290.416 54.2443 288.52 54.0364 286.862 53.948C284.321 53.8388 278.642 59.8905 279.239 60.5767C279.53 60.9095 284.435 57.8888 285.994 57.4001C287.553 56.9114 291.346 57.8784 291.679 57.6237C292.011 57.3689 292.469 55.7936 291.409 54.9878Z" fill="#754C24"/>
<path d="M313.761 76.0647C310.346 75.9328 307.675 73.2952 307.795 70.1735C307.916 67.0519 310.782 64.6281 314.197 64.76C317.612 64.8919 320.283 67.5294 320.163 70.6511C320.043 73.7728 317.176 76.1965 313.761 76.0647Z" fill="#57453F"/>
<path d="M313.415 76.1549C310.12 76.0277 307.544 73.4823 307.66 70.4697C307.776 67.457 310.541 65.1179 313.836 65.2451C317.131 65.3723 319.708 67.9177 319.591 70.9304C319.475 73.943 316.71 76.2822 313.415 76.1549Z" fill="white"/>
<path d="M281.204 70.2171C281.129 67.2491 283.717 64.776 286.985 64.6932C290.252 64.6104 292.962 66.9494 293.037 69.9174C293.112 72.8855 290.524 75.3586 287.257 75.4413C283.989 75.5241 281.279 73.1851 281.204 70.2171Z" fill="#57453F"/>
<path d="M281.743 70.4837C281.67 67.619 284.167 65.232 287.32 65.1521C290.473 65.0723 293.088 67.3298 293.16 70.1945C293.233 73.0592 290.735 75.4462 287.583 75.5261C284.43 75.6059 281.815 73.3484 281.743 70.4837Z" fill="white"/>
<g style="mix-blend-mode:overlay" opacity="0.5">
<path style="mix-blend-mode:overlay" opacity="0.5" d="M287.48 40.5554C287.48 40.5554 296.314 45.4321 303.458 44.1271L304.232 41.9851C304.232 41.9851 323.068 38.4758 325.204 51.2602L331.008 38.7825C325.079 31.2335 313.985 26.9547 302.949 28.9303C290.562 30.4173 282.804 35.8866 279.878 45.8532C281.089 44.0127 283.718 40.6437 287.48 40.5554Z" fill="url(#paint2_linear)"/>
</g>
<path d="M336.292 35.1327C334.967 29.0707 320.621 20.929 304.222 22.1144C295.659 22.7383 276.309 30.2977 266.686 30.6564L274.309 47.4076C274.309 47.4076 272.589 52.7782 278.549 56.9842C278.549 56.9842 277.733 40.1394 288.25 38.0026C288.25 38.0026 295.004 43.1756 302.866 43.1756L300.907 40.1394C300.907 40.1394 319.441 37.1084 323.183 46.0247C326.924 54.941 323.183 83.5253 323.183 83.5253C323.183 83.5253 331.631 67.3355 334.354 74.167C334.983 75.7267 331.907 87.7105 332.219 90.9599C332.671 95.2595 333.258 99.4967 336.791 101.951C334.723 93.9389 350.493 60.9303 336.292 35.1327Z" fill="#754C24"/>
<path opacity="0.1" d="M325.146 32.8296C325.146 32.8296 322.029 24.1889 308.519 24.4384C299.416 24.6048 295.924 27.0067 291.201 28.4157C291.201 28.4157 302.305 26.6792 310.946 27.1731C316.287 27.485 325.146 32.8296 325.146 32.8296Z" fill="black"/>
<path opacity="0.1" d="M322.413 35.6215C322.647 35.5539 310.411 30.4536 306.727 30.0377C303.043 29.6218 285.449 30.6304 283.261 30.6304C283.261 30.6304 303.578 31.3427 306.43 31.5818C309.283 31.821 321.821 35.8034 322.413 35.6215Z" fill="black"/>
<path opacity="0.1" d="M326.929 35.8605C326.929 35.8605 324.029 38.85 322.964 39.3387C321.899 39.8274 326.752 37.8674 327.121 38.0441C327.49 38.2209 333.595 40.4409 335.954 52.0815C335.954 52.0815 333.814 38.564 329.241 37.1603C329.226 36.5007 329.286 35.8415 329.418 35.1951C329.418 35.1951 327.864 34.9247 326.929 35.8605Z" fill="black"/>
<path d="M324.232 73.2936C324.232 73.2936 322.824 84.0036 321.753 85.0694C320.683 86.1352 315.617 79.9171 307.953 82.5582C298.34 85.8752 290.052 83.0781 284.415 82.0383C282.778 81.7472 279.686 88.1368 279.686 88.1368C279.686 88.1368 278.554 101.753 280.014 104.774C282.046 108.883 285.434 112.165 289.606 114.064C290.276 113.128 291.876 112.64 291.876 112.64C292.947 114.782 296.916 116.742 299.187 117.173C299.187 117.173 307.802 113.128 308.155 112.775C308.509 112.421 310.12 114.615 310.12 114.615C313.284 112.749 314.869 111.408 317.488 108.195L318.968 109.682C318.968 109.682 326.861 101.987 326.726 93.6893C326.544 82.995 326.981 74.3386 327.88 75.1652C327.869 75.1652 324.887 73.8343 324.232 73.2936Z" fill="#754C24"/>
<g style="mix-blend-mode:multiply" opacity="0.58">
<g style="mix-blend-mode:multiply" opacity="0.58">
<path d="M292.967 99.4654C295.368 101.025 302.274 100.698 304.373 99.3198C304.373 99.3198 299.416 103.635 292.967 99.4654Z" fill="#DAB99B"/>
</g>
</g>
<path d="M284.903 86.9255C286.15 84.6899 289.06 87.6637 293.908 88.2148C298.756 88.7659 318.678 83.0834 317.015 89.6914C315.456 95.9822 300.419 99.8347 295.467 98.7325C286.337 96.6944 284.337 87.9341 284.903 86.9255Z" fill="#333333"/>
<path d="M314.988 92.8419C312.479 92.7952 308.753 92.8419 306.825 93.2891C302.668 94.3289 302.19 94.9268 301.629 95.1867C301.629 94.8956 302.429 94.3497 303.734 93.8714C303.375 93.4918 301.686 93.3515 299.307 93.6894C295.867 94.1781 292.25 95.769 290.515 96.632C292.015 97.6294 293.69 98.3349 295.451 98.7117C299.525 99.6371 310.348 97.2091 314.988 92.8419Z" fill="#F86C6C"/>
<path d="M294.282 87.2633C291.372 86.9358 289.231 85.792 287.667 85.4125C287.618 85.5707 287.63 85.7414 287.7 85.8914C287.771 86.0414 287.894 86.1598 288.047 86.2235C289.803 87.2221 291.751 87.837 293.762 88.0276C296.038 88.1576 309.096 88.2356 311.143 87.6325C311.689 87.5286 312.205 87.305 312.654 86.9778C313.104 86.6506 313.475 86.2279 313.741 85.74C308.472 85.1317 297.472 87.5961 294.344 87.2425" fill="#E1807E"/>
<path d="M287.699 85.896C287.767 86.4391 287.869 86.9774 288.005 87.5077C288.096 87.7791 288.247 88.0262 288.448 88.2299C288.649 88.4336 288.894 88.5885 289.164 88.6827C289.704 88.8314 290.271 88.8545 290.821 88.7503C291.341 88.6463 291.544 89.5301 292.276 89.894C293.108 90.3048 294.469 90.2164 295.02 90.1644C295.571 90.1124 296.579 90.6843 297.446 90.6843C298.797 90.6219 299.972 89.9512 300.164 90.0344C301.759 90.7051 303.541 90.1332 304.154 89.4209C305.687 90.1124 307.927 89.5457 308.55 88.7866C309.402 89.031 311.247 88.8698 311.73 88.4799C312.214 88.09 313.024 86.6758 311.346 86.2183C310.686 86.0364 309.049 86.889 308.592 87.0502C308.135 87.2113 306.654 86.6134 306.051 86.6394C304.752 86.6914 304.362 87.4349 303.9 87.5233C303.437 87.6117 302.923 87.0658 302.175 87.0034C300.096 86.8474 299.878 87.6741 299.405 87.6948C298.706 87.6204 298.013 87.5058 297.327 87.3517C296.288 87.2061 295.03 87.8716 294.677 87.8716C294.324 87.8716 293.684 87.3517 292.702 87.2165C292.11 87.1438 291.232 87.5077 290.936 87.3621C290.317 87.0502 289.808 85.8024 287.699 85.9012" fill="white"/>
<path opacity="0.2" d="M338.76 185.946C336.162 223.239 342.008 249.962 342.008 249.962C342.008 249.962 339.976 255.436 311.512 255.436C283.048 255.436 273.753 248.241 273.753 248.241C274.651 243.832 275.659 229.691 275.997 222.469C277.125 236.283 288.312 241.503 304.222 241.503H304.861C308.774 241.486 312.639 240.643 316.203 239.029C319.768 237.415 322.951 235.065 325.545 232.135C328.14 229.204 330.086 225.759 331.258 222.024C332.429 218.288 332.799 214.348 332.343 210.46C330.504 194.753 328.524 176.827 328.327 170.989C328.093 164.11 331.585 140.361 334.276 123.272C334.707 120.532 340.174 121.026 340.969 124.686C343.343 135.656 341.047 153.379 338.76 185.946Z" fill="url(#paint3_linear)"/>
<path d="M337.284 69.1292C336.245 74.8949 337.097 83.4265 338.147 90.3048C337.004 95.639 336.219 99.7514 336.786 101.961C333.226 99.5071 332.665 95.2699 332.213 90.9703C331.901 87.7209 334.977 75.7579 334.349 74.1774C333.58 72.2434 332.348 72.1498 330.987 73.0128C331.751 69.7739 332.312 67.6371 332.312 67.6371C332.312 67.6371 339.275 58.0189 337.284 69.1292Z" fill="url(#paint4_linear)"/>
<path d="M295.934 24.5632C295.934 24.5632 275.966 25.8057 272.651 23.8977L278.948 28.6236L295.934 24.5632Z" fill="#754C24"/>
<path d="M310.577 73.3144C309.406 73.3144 308.457 72.3647 308.457 71.1932C308.457 70.0217 309.406 69.072 310.577 69.072C311.748 69.072 312.697 70.0217 312.697 71.1932C312.697 72.3647 311.748 73.3144 310.577 73.3144Z" fill="#4D4D4D"/>
<path d="M285.127 73.4079C283.956 73.4079 283.007 72.4582 283.007 71.2867C283.007 70.1152 283.956 69.1655 285.127 69.1655C286.297 69.1655 287.247 70.1152 287.247 71.2867C287.247 72.4582 286.297 73.4079 285.127 73.4079Z" fill="#4D4D4D"/>
<path d="M313.056 72.0151C311.866 71.9691 310.922 71.3713 310.949 70.6799C310.976 69.9884 311.962 69.4651 313.152 69.511C314.342 69.557 315.285 70.1548 315.259 70.8463C315.232 71.5377 314.246 72.061 313.056 72.0151Z" fill="white"/>
<path d="M287.605 72.1092C286.415 72.0633 285.472 71.4655 285.499 70.774C285.525 70.0825 286.512 69.5592 287.702 69.6052C288.892 69.6511 289.835 70.2489 289.808 70.9404C289.781 71.6319 288.795 72.1552 287.605 72.1092Z" fill="white"/>
<path d="M306.607 74.8065L306.212 79.3972L319.597 80.5514C319.597 80.5514 319.706 76.6002 319.956 76.3922C320.205 76.1842 318.459 74.245 313.383 73.7927C308.306 73.3404 306.607 74.8065 306.607 74.8065Z" fill="#F9CA9E"/>
<path opacity="0.05" d="M308.187 75.8099C308.187 75.8099 312.266 74.5569 314.978 75.5395C317.69 76.5221 320.808 77.5775 317.799 77.3228C314.791 77.068 307.745 76.8029 308.187 75.8099Z" fill="black"/>
<path d="M294.111 74.3697L294.427 78.7681L281.604 79.7091C281.604 79.7091 281.552 75.9243 281.313 75.7163C281.074 75.5083 282.773 73.6783 287.641 73.3247C292.51 72.9712 294.111 74.3697 294.111 74.3697Z" fill="#F9CA9E"/>
<path opacity="0.05" d="M292.583 75.3108C292.583 75.3108 288.696 74.0579 286.088 74.9625C283.479 75.8671 280.486 76.8393 283.37 76.6366C286.254 76.4338 292.993 76.2623 292.583 75.3108Z" fill="black"/>
<path d="M360.069 220.759C354.317 237.453 343.733 275.291 343.733 275.291L348.259 280.963C348.259 280.963 367.448 231.807 369.973 223.857C371.547 215.861 362.672 213.251 360.069 220.759Z" fill="#F9CA9E"/>
<path d="M352.379 282.17C353.155 280.072 353.541 277.85 353.517 275.614C353.585 265.548 341.369 263.957 338.558 282.82L338.443 282.877C337.679 286.474 338.298 300.637 339.483 300.834C340.376 300.98 341.166 300.507 341.374 299.337C341.608 302.872 342.029 305.825 342.579 305.914C343.79 306.111 344.819 305.181 344.45 302.914C344.273 301.806 344.575 297.918 344.97 294.075C345.396 299.274 346.321 305.279 347.048 305.326C348.17 305.394 349.043 304.354 348.544 302.144C348.274 300.938 348.305 296.228 348.425 292.006C348.856 296.971 349.625 302.077 350.342 302.129C351.569 302.212 352.504 301.188 351.901 298.962C351.491 297.096 352.073 286.173 352.379 282.17Z" fill="#F9CA9E"/>
<path d="M332.405 84.5234C337.96 79.7611 339.966 69.6074 333.653 67.8449C328.675 66.4568 327.235 75.0092 326.851 78.7109C326.68 80.2265 326.887 81.7609 327.454 83.1769C328.217 85.0329 329.693 86.7434 332.405 84.5234Z" fill="#F9CA9E"/>
<path opacity="0.05" d="M328.831 78.0195C328.831 78.0195 329.397 76.7769 330.441 76.8497C331.486 76.9225 332.878 77.458 334.349 74.1774C334.331 73.8504 334.233 73.5328 334.065 73.252C333.896 72.9712 333.662 72.7357 333.382 72.5657C332.468 72.1082 331.647 72.0458 330.894 73.2364C330.14 74.427 328.545 76.4806 328.831 78.0195Z" fill="#1C1C1B"/>
<path d="M338.968 106.505C338.09 106.505 315.84 118.744 312.037 133.966C308.233 149.189 309.112 174.659 309.112 184.615C309.112 194.571 308.54 268.247 308.54 268.247L348.321 264.15C348.321 264.15 345.12 241.919 345.723 224.918C346.326 207.917 354.192 174.571 348.633 160.518C343.073 146.465 338.968 106.505 338.968 106.505Z" fill="#232833"/>
<g opacity="0.3">
<path opacity="0.3" d="M341.462 257.999C345.099 256.377 343.218 247.903 341.904 241.019C340.589 234.136 341.758 215.112 341.904 214.234C342.049 213.355 341.758 199.744 343.364 190.963C344.97 182.182 336.931 174.42 333.855 168.274C330.779 162.129 336.931 147.478 336.931 147.478C336.931 147.478 344.819 160.143 350.441 169.631C351.615 185.904 346.191 210.948 345.713 224.907C345.12 241.919 348.321 264.15 348.321 264.15L309.226 268.174C311.549 266.791 315.523 264.363 318.184 262.392C322.154 259.465 337.825 259.621 341.462 257.999Z" fill="black"/>
</g>
<path d="M272.235 123.511L272.173 124.712L271.554 124.572L272.235 123.511Z" fill="#303030"/>
<path d="M337.134 119.222C328.269 146.673 352.576 173.016 362.943 211.177C366.824 220.39 374.374 214.296 373.906 211.276C371.755 196.859 356.494 134.819 337.134 119.222Z" fill="#FD667B"/>
<path d="M333.71 113.29C337.414 111.73 345.172 122.409 349.121 128.117C353.07 133.826 360.63 149.199 361.41 154.055C361.94 157.414 375.647 204.429 375.86 208.333C376.073 212.238 374.691 220.629 371.766 226.093C368.84 231.557 364.138 242.387 364.138 242.959C364.138 243.531 358.017 238.227 352.826 240.224C352.826 240.224 360.235 211.437 360.043 210.465C359.851 209.492 352.047 184.73 349.88 181.397C347.713 178.064 336.812 154.466 334.666 147.442C332.52 140.418 330.005 114.849 333.71 113.29Z" fill="#232833"/>
<g opacity="0.3">
<path opacity="0.3" d="M350.534 176.619C353.46 180.716 359.264 200.914 359.264 200.914C359.264 200.914 362.044 209.94 364.039 210.381C366.034 210.823 363.795 211.208 362.48 213.017C361.166 214.827 356.115 231.999 356.115 231.999C355.956 234.544 355.506 237.063 354.774 239.506C354.103 239.712 353.443 239.957 352.8 240.239C352.8 240.239 360.236 211.452 360.043 210.48C359.851 209.508 352.047 184.729 349.88 181.397C349.677 181.09 349.402 180.607 349.064 179.972C349.604 177.31 350.098 176.006 350.534 176.619Z" fill="black"/>
</g>
<path d="M357.024 262.632C357.024 262.632 348.789 258.582 346.918 258.945C346.918 258.945 345.203 264.269 345.276 264.664C345.349 265.06 353.766 268.538 354.556 268.148C355.346 267.758 356.52 264.883 357.024 262.632Z" fill="#4D4D4D"/>
<path d="M280.092 114.324C280.092 114.324 287.257 131.803 285.288 138.24C283.318 144.676 278.46 185.27 277.494 189.19C276.527 193.11 278.273 265.304 278.273 265.304C278.273 265.304 264.618 258.67 263.059 254.386C261.5 250.102 266.566 179.25 266.764 178.48C266.961 177.711 272.672 124.686 273.061 121.951C273.451 119.217 280.092 114.324 280.092 114.324Z" fill="#232833"/>
<path d="M241.022 176.185C235.632 166.392 227.089 140.48 224.484 134.293C224.484 134.293 213.962 137.955 208.204 138.105C212.163 149.186 223.182 195.924 238.049 195.924C252.915 195.924 245.418 184.179 241.022 176.185Z" fill="#232833"/>
</g>
<defs>
<linearGradient id="paint0_linear" x1="301.112" y1="130.827" x2="251.629" y2="143.573" gradientUnits="userSpaceOnUse">
<stop/>
<stop offset="1" stop-opacity="0"/>
</linearGradient>
<linearGradient id="paint1_linear" x1="-1.0622e+06" y1="13012.7" x2="-1.0626e+06" y2="6634.2" gradientUnits="userSpaceOnUse">
<stop stop-opacity="0"/>
<stop offset="1"/>
</linearGradient>
<linearGradient id="paint2_linear" x1="-727828" y1="811.984" x2="-722795" y2="811.984" gradientUnits="userSpaceOnUse">
<stop stop-opacity="0"/>
<stop offset="1"/>
</linearGradient>
<linearGradient id="paint3_linear" x1="2312.54" y1="43002.4" x2="-18499.9" y2="43002.4" gradientUnits="userSpaceOnUse">
<stop/>
<stop offset="1" stop-opacity="0"/>
</linearGradient>
<linearGradient id="paint4_linear" x1="-152.324" y1="4534.52" x2="-390.113" y2="4534.52" gradientUnits="userSpaceOnUse">
<stop stop-opacity="0"/>
<stop offset="1"/>
</linearGradient>
<clipPath id="clip0">
<rect width="195.86" height="246" fill="white" transform="matrix(-1 0 0 1 375.86 22)"/>
</clipPath>
</defs>
</svg>
