<svg width="411" height="383" viewBox="0 0 411 383" fill="none" xmlns="http://www.w3.org/2000/svg">
<rect width="413" height="383" fill="#F7931E"/>
<path d="M330.877 64.0325C330.877 64.0325 335.358 25.9072 318.194 27.7439C318.194 27.7439 329.261 -1.99327 354.666 22.9967C354.666 22.9967 374.928 43.3593 363.512 81.2611C345.848 139.907 363.621 145.161 363.621 145.161C363.621 145.161 305.319 151.249 331.057 69.4011L330.866 64.0598" fill="#3F280D"/>
<path d="M285.101 117.719C276.075 112.312 277.627 134.206 263.119 166.658C260.245 173.084 255.046 188.176 250.893 194.498C247.926 203.595 257.425 203.824 259.031 201.366C266.603 189.555 298.052 125.486 285.101 117.719Z" fill="#F3C49F"/>
<path d="M232.646 165.783C239.908 179.669 248.462 195.912 250.866 199.933C255.984 206.59 264.066 201.784 260.038 194.674C251.061 178.905 229.035 144.973 229.035 144.973L221.552 144.434C221.552 144.434 226.645 154.314 232.646 165.783Z" fill="#F3C49F"/>
<path d="M222.157 149.097C222.741 150.849 223.735 152.437 225.055 153.727C230.59 159.139 239.263 147.928 230.582 135.136L230.623 134.987C229.115 132.327 220.87 125.415 219.988 126.51C219.653 126.857 219.436 127.301 219.368 127.778C219.301 128.255 219.386 128.742 219.611 129.167C217.504 127.526 215.599 126.373 215.199 126.871C214.315 127.959 214.181 129.471 215.673 130.313C216.4 130.725 218.362 133.088 220.231 135.497C217.112 133.182 213.159 130.886 212.668 131.588C211.919 132.657 211.937 134.065 213.48 134.75C214.311 135.145 216.919 137.658 219.174 140.015C216.15 137.805 212.829 135.853 212.343 136.533C211.518 137.698 211.498 139.149 213.091 139.779C214.448 140.297 220.135 146.669 222.157 149.097Z" fill="#F3C49F"/>
<g style="mix-blend-mode:color-dodge" opacity="0.29">
<path style="mix-blend-mode:color-dodge" opacity="0.29" d="M346.06 123.366L346.159 123.333L346.06 123.366Z" fill="url(#paint0_linear)"/>
</g>
<path d="M283.692 228.999C283.692 228.999 284.405 236.204 314.753 233.228C345.102 230.253 346.158 220.398 346.158 220.398C346.158 220.398 341.09 216.191 335.864 195.817C332.505 182.736 348.608 121.092 330.616 112.808C330.616 112.808 322.941 109.145 301.933 111.206C280.926 113.266 280.121 121.725 280.121 121.725C280.556 130.102 274.133 159.785 278.885 172.266C281.302 178.627 285.564 189.288 286.272 196.041C288.754 219.837 283.692 228.999 283.692 228.999Z" fill="#F3C49F"/>
<path d="M306.027 23.1655C313.393 19.699 340.513 32.2294 342.799 41.4951C345.086 50.7607 356.229 63.9615 341.308 87.2019C329.626 105.363 291.52 104.512 291.71 93.8786C291.901 83.2449 288.885 31.2429 306.027 23.1655Z" fill="#3F280D"/>
<path d="M284.291 115.936C288.314 121.49 301.362 133.557 301.362 133.557C301.362 133.557 331.618 121.392 330.878 115.162C330.878 115.162 333.599 90.5266 334.786 67.9076C335.674 51.1804 332.353 29.7059 313.011 29.3408C293.67 28.9756 282.391 32.7963 282.364 50.6735C282.353 62.43 284.291 115.936 284.291 115.936Z" fill="#F3C49F"/>
<path d="M311.378 59.1599C311.292 59.0086 311.245 58.8377 311.243 58.6633C311.241 58.489 311.284 58.317 311.366 58.1637C311.449 58.0104 311.57 57.8807 311.717 57.787C311.864 57.6934 312.032 57.6387 312.206 57.6284C315.369 57.4476 318.541 57.7285 321.623 58.4623C324.306 59.1964 326.82 60.446 329.027 62.1413C329.686 62.73 330.306 63.3618 330.883 64.0325C330.883 64.0325 325.439 61.2256 321.482 60.6697C316.446 59.9666 314.949 59.9012 312.636 60.1246C312.433 60.1374 312.231 60.0931 312.052 59.9968C311.873 59.9005 311.724 59.756 311.623 59.5796L311.378 59.1599Z" fill="#643E00"/>
<path d="M296.658 58.3095C296.778 58.1762 296.867 58.018 296.919 57.8464C296.97 57.6747 296.984 57.4937 296.958 57.3163C296.932 57.1389 296.867 56.9693 296.768 56.8198C296.67 56.6702 296.539 56.5443 296.386 56.451C294.532 55.4414 292.497 54.8098 290.398 54.5924C288.376 54.5102 286.366 54.9494 284.562 55.8678C283.95 56.2386 283.364 56.652 282.81 57.105C282.81 57.105 287.11 56.0585 289.816 56.7126C292.913 57.4647 294.013 57.8572 295.232 58.5657C295.466 58.6962 295.738 58.7419 296.002 58.6953C296.265 58.6486 296.505 58.5124 296.68 58.3095H296.658Z" fill="#643E00"/>
<path d="M327.214 63.76C326.343 63.9944 320.502 62.8934 319.729 62.7789C316.065 62.2339 312.521 64.0434 311.825 66.8776C311.128 69.7118 313.529 72.4588 317.192 73.0256C320.856 73.5925 324.4 71.7611 325.102 68.9269C325.348 67.9119 325.202 66.8414 324.694 65.9292C325.886 65.4387 327.214 63.76 327.214 63.76Z" fill="#393936"/>
<path d="M324.394 69.1396C323.724 71.8648 320.355 73.5871 316.86 73.0475C313.365 72.5079 311.079 69.8808 311.748 67.1829C312.418 64.485 315.787 62.7408 319.277 63.2804C322.766 63.82 325.058 66.4471 324.394 69.1396Z" fill="white"/>
<path d="M310.572 72.2791L310.344 75.5493L324.29 76.4595L324.503 73.3473C324.503 73.3473 323.507 71.5432 317.17 71.129C310.834 70.7148 310.572 72.2791 310.572 72.2791Z" fill="#F3C49F"/>
<g opacity="0.05">
<path opacity="0.05" d="M321.542 73.7341C321.106 74.2791 318.923 73.6469 317.067 73.8104C315.211 73.9739 311.389 74.2628 311.792 73.5651C313.257 72.6404 314.96 72.1638 316.692 72.1938C318.424 72.2239 320.109 72.7591 321.542 73.7341Z" fill="#141413"/>
</g>
<path d="M316.974 66.4145C317.158 66.5895 317.306 66.7998 317.407 67.0329C317.508 67.266 317.562 67.5171 317.564 67.7713C317.567 68.0255 317.518 68.2777 317.422 68.5127C317.325 68.7478 317.182 68.961 317.001 69.1397C316.627 69.5085 316.124 69.7179 315.598 69.724C315.073 69.7301 314.565 69.5324 314.182 69.1724C314 68.9951 313.855 68.7833 313.757 68.5492C313.658 68.3152 313.607 68.0638 313.607 67.8098C313.607 67.5558 313.658 67.3043 313.757 67.0703C313.855 66.8363 314 66.6244 314.182 66.4472C314.555 66.0851 315.052 65.8799 315.571 65.8738C316.091 65.8677 316.593 66.0612 316.974 66.4145Z" fill="#8A4714"/>
<path d="M315.553 66.8176C315.553 67.4389 314.672 67.9567 313.566 67.9676C312.461 67.9785 311.569 67.4825 311.558 66.8775C311.547 66.2726 312.44 65.7439 313.545 65.733C314.65 65.7221 315.548 66.1963 315.553 66.8176Z" fill="white"/>
<path d="M296.963 67.1773C296.637 64.5502 293.621 62.6099 290.23 62.817C289.201 62.8879 284.982 63.9671 284.002 63.9071C284.125 64.6514 284.512 65.3265 285.091 65.8093C284.748 66.4812 284.611 67.2399 284.699 67.9894C285.025 70.6165 288.047 72.5623 291.438 72.3497C294.829 72.1372 297.317 69.8044 296.963 67.1773Z" fill="#393936"/>
<path d="M285.368 68.2894C285.678 70.7802 288.542 72.6497 291.753 72.4044C294.965 72.1592 297.322 69.9899 297.012 67.4991C296.702 65.0083 293.844 63.1715 290.627 63.3895C287.409 63.6075 285.058 65.804 285.368 68.2894Z" fill="white"/>
<path d="M298.003 71.5431L298.079 74.5353L285.384 74.8406L285.313 72.0064C285.313 72.0064 286.288 70.4039 292.058 70.2677C297.828 70.1314 298.003 71.5431 298.003 71.5431Z" fill="#F3C49F"/>
<g opacity="0.05">
<path opacity="0.05" d="M285.281 73.3745C285.738 73.8432 287.725 73.0474 289.478 73.0311C291.231 73.0147 294.824 72.9275 294.377 72.3116C292.92 71.5867 291.282 71.3036 289.666 71.4973C288.051 71.6909 286.526 72.3528 285.281 73.4017" fill="#141413"/>
</g>
<path d="M291.154 67.4499C291.17 67.824 291.073 68.194 290.877 68.5128C290.681 68.8315 290.394 69.0843 290.053 69.2388C289.713 69.3934 289.334 69.4426 288.965 69.3802C288.596 69.3178 288.255 69.1466 287.984 68.8886C287.713 68.6306 287.525 68.2974 287.444 67.9319C287.363 67.5663 287.394 67.1849 287.531 66.8366C287.668 66.4883 287.906 66.1889 288.214 65.9767C288.522 65.7646 288.886 65.6494 289.26 65.6458C289.75 65.6341 290.225 65.8174 290.58 66.1556C290.935 66.4939 291.142 66.9593 291.154 67.4499Z" fill="#8A4714"/>
<path d="M288.798 66.5779C288.798 67.1611 287.971 67.668 286.936 67.668C285.902 67.668 285.053 67.2101 285.047 66.6269C285.042 66.0438 285.875 65.5369 286.915 65.5369C287.954 65.5369 288.798 65.9892 288.798 66.5779Z" fill="white"/>
<g opacity="0.08">
<path opacity="0.08" d="M308.101 23.002C313.719 22.6914 338.956 48.5806 337.323 64.9208C331.983 61.994 318.901 55.1538 315.178 44.0459C315.178 44.0459 305.047 47.9974 296.751 47.5669L296.359 46.0517C296.359 46.0517 285.347 47.2616 282.385 52.7447C282.385 51.9599 282.385 51.2677 282.385 50.6736C282.402 32.7964 302.489 23.3127 308.101 23.002Z" fill="#010101"/>
</g>
<path d="M325.096 26.5286C325.096 26.5286 323.463 36.6063 311.917 41.4408C304.991 44.3465 298.694 48.5705 293.376 53.8785V42.9124C293.376 42.9124 282.195 50.8481 277.763 57.8246C274.29 30.9107 305.172 7.00533 325.096 26.5286Z" fill="#3F280D"/>
<path d="M325.096 26.5286C325.096 26.5286 342.26 27.9675 347.257 43.0105C352.255 58.0535 346.446 73.3091 346.446 73.3091C346.446 73.3091 318.836 51.3714 317.595 41.0375C316.353 30.7035 325.096 26.5286 325.096 26.5286Z" fill="#3F280D"/>
<path opacity="0.2" d="M327.704 28.4855C327.704 28.4855 348.673 34.519 346.757 57.9175C345.135 46.7442 338.88 36.9117 327.704 28.4855Z" fill="#010101"/>
<path opacity="0.2" d="M331.939 34.1045C332.946 35.8922 346.664 51.0987 345.069 62.3592C341.996 57.7807 339.483 52.8491 337.584 47.6705C335.963 43.0441 334.078 38.5147 331.939 34.1045Z" fill="#010101"/>
<g opacity="0.08">
<path opacity="0.44" d="M307.355 135.705C310.044 135.754 328.618 115.718 329.789 101.804C330.012 99.1875 332.51 86.608 333.724 85.24C332.695 100.332 330.877 115.163 330.877 115.163C331.618 121.392 308.64 152.634 308.64 152.634C308.64 152.634 285.232 117.517 283.691 111.086C289.701 116.819 305.722 135.672 307.355 135.705Z" fill="#010101"/>
</g>
<path d="M339.68 86.8097C344.334 81.2612 346.893 71.8321 340.148 69.8699C333.403 67.9078 331.645 85.785 331.645 85.785C331.645 85.785 334.438 93.0558 339.68 86.8097Z" fill="#F3C49F"/>
<path opacity="0.05" d="M334.764 80.3892C334.764 80.3892 335.396 79.1029 336.523 79.201C337.65 79.2991 339.119 79.8823 340.769 76.4758C340.754 76.1319 340.654 75.7971 340.479 75.5013C340.303 75.2055 340.057 74.9579 339.762 74.7807C338.793 74.2847 337.911 74.2084 337.078 75.4239C336.245 76.6393 334.492 78.7704 334.764 80.3892Z" fill="#141413"/>
<path d="M333.855 86.2646C333.837 86.6523 333.935 87.0366 334.136 87.3685C334.337 87.7004 334.632 87.9647 334.984 88.1277C335.336 88.2907 335.728 88.3449 336.111 88.2834C336.494 88.222 336.849 88.0476 337.133 87.7826C337.416 87.5177 337.614 87.1741 337.701 86.796C337.788 86.4178 337.761 86.0222 337.622 85.6596C337.484 85.2971 337.24 84.9842 336.923 84.7609C336.606 84.5376 336.23 84.414 335.842 84.406C335.59 84.3965 335.338 84.4372 335.101 84.5256C334.864 84.6141 334.647 84.7485 334.463 84.9213C334.278 85.094 334.129 85.3017 334.025 85.5322C333.921 85.7627 333.863 86.0116 333.855 86.2646Z" fill="#80BC00"/>
<path d="M290.518 84.1607C290.845 84.1607 299.174 83.4303 300.905 84.0135C303.719 84.951 305.042 84.2479 307.149 83.85C308.907 83.5175 319.93 82.8907 319.93 82.8907C319.93 82.8907 314.639 87.251 304.329 87.142C295.504 87.0385 290.518 84.1607 290.518 84.1607Z" fill="#FF8092"/>
<path d="M288.896 83.5341C289.19 83.7257 289.514 83.8692 289.854 83.9592C290.193 84.0673 290.541 84.1475 290.893 84.199C291.601 84.3244 292.309 84.4279 293.022 84.526C294.443 84.7168 295.874 84.8694 297.306 84.9839C300.17 85.2063 303.045 85.2409 305.913 85.0874C308.782 84.9661 311.642 84.6694 314.476 84.199C315.892 83.9774 317.293 83.6698 318.673 83.2779C319.362 83.1138 320.003 82.7909 320.545 82.335C321.078 81.8621 321.495 81.2728 321.765 80.6127C321.77 80.6077 321.777 80.6049 321.784 80.6049C321.791 80.6049 321.798 80.6077 321.803 80.6127C321.808 80.6177 321.81 80.6246 321.81 80.6317C321.81 80.6389 321.808 80.6457 321.803 80.6508C321.584 81.3511 321.184 81.981 320.643 82.4767C320.091 82.9618 319.43 83.3059 318.716 83.4795C317.33 83.8823 315.921 84.2026 314.497 84.4388C311.658 84.9317 308.791 85.2484 305.913 85.3872C303.032 85.4818 300.149 85.3963 297.279 85.131C295.847 85.0166 294.416 84.8694 292.989 84.6786C292.271 84.586 291.563 84.4824 290.85 84.3625C290.491 84.3139 290.137 84.2299 289.794 84.1118C289.436 84.0055 289.106 83.8192 288.83 83.5668L288.868 83.5286L288.896 83.5341Z" fill="#6F4C2D"/>
<path opacity="0.2" d="M324.633 27.0353L322.51 28.1908C322.51 28.1908 314.753 26.1033 309.805 28.6322C309.805 28.6322 319.783 28.0436 320.333 30.4854C320.883 32.9271 318.351 36.181 318.656 35.9957C318.961 35.8104 323.67 32.006 324.633 27.0353Z" fill="#010101"/>
<path d="M321.057 22.9965C321.057 22.9965 322.565 25.3783 330.856 29.7549C330.856 29.7549 332.396 29.7222 333.354 27.6511C332.278 25.669 330.793 23.9382 328.999 22.573C327.205 21.2079 325.142 20.2394 322.946 19.7317C322.946 19.7317 320.235 21.176 321.057 22.9965Z" fill="#80BC00"/>
<path d="M284.29 222.687L282.929 232.367C282.929 232.367 322.026 241.235 349.059 227.462C349.059 227.462 345.695 211.656 340.349 208.865C340.349 208.865 314.671 216.97 286.898 212.212L284.29 222.687Z" fill="#4D4D4D"/>
<path d="M331.939 113.554L334.987 115.478C334.987 115.478 329.38 134.01 339.075 147.063C339.075 147.063 340.333 203.437 349.059 218.354C349.059 218.354 304.682 231.615 281.302 223.358C281.302 223.358 288.536 203.48 279.614 174.168C276.936 165.36 275.836 156.798 283.691 142.687C291.547 128.576 280.866 117.528 280.866 117.528L284.274 115.44C284.274 115.44 296.963 134.631 307.306 139.062C307.306 139.062 321.71 131.928 331.939 113.554Z" fill="#1A171C"/>
<path d="M330.334 162.409C330.341 162.795 330.272 163.178 330.131 163.537C329.99 163.896 329.78 164.223 329.513 164.5C329.245 164.778 328.926 165 328.573 165.153C328.219 165.307 327.839 165.389 327.454 165.396L286.033 166.688C285.255 166.723 284.494 166.448 283.917 165.923C283.341 165.398 282.996 164.665 282.957 163.886L282.816 159.482C282.809 159.097 282.878 158.713 283.018 158.355C283.159 157.996 283.37 157.668 283.637 157.391C283.905 157.113 284.224 156.891 284.577 156.738C284.931 156.584 285.311 156.502 285.696 156.495L327.117 155.204C327.502 155.185 327.888 155.243 328.251 155.374C328.614 155.505 328.948 155.706 329.234 155.966C329.52 156.227 329.751 156.541 329.916 156.89C330.08 157.24 330.174 157.619 330.192 158.005L330.334 162.409Z" fill="black"/>
<path fill-rule="evenodd" clip-rule="evenodd" d="M288.83 163.028V162.335L288.798 161.251C288.792 161.112 288.757 160.977 288.694 160.853C288.637 160.726 288.553 160.613 288.449 160.52C288.347 160.426 288.227 160.354 288.095 160.308C287.965 160.254 287.823 160.229 287.682 160.237C287.535 160.241 287.391 160.274 287.257 160.335C287.129 160.391 287.012 160.47 286.914 160.57C286.82 160.669 286.744 160.786 286.691 160.913C286.641 161.043 286.619 161.182 286.626 161.322C286.63 161.463 286.661 161.601 286.718 161.73C286.78 161.855 286.862 161.967 286.963 162.063C287.068 162.158 287.19 162.232 287.322 162.281C287.46 162.33 287.606 162.353 287.753 162.346L288.672 162.319V163.011L287.753 163.039C287.514 163.047 287.275 163.01 287.05 162.93C286.833 162.847 286.633 162.723 286.462 162.564C286.291 162.412 286.152 162.227 286.054 162.019C285.955 161.809 285.9 161.581 285.891 161.349C285.883 161.116 285.922 160.885 286.005 160.668C286.093 160.463 286.22 160.277 286.381 160.123C286.536 159.959 286.721 159.826 286.925 159.73C287.142 159.63 287.377 159.576 287.616 159.572C288.089 159.555 288.548 159.725 288.896 160.046C289.067 160.197 289.205 160.383 289.298 160.591C289.403 160.8 289.459 161.029 289.462 161.262L289.522 163.017L288.83 163.028Z" fill="white"/>
<path fill-rule="evenodd" clip-rule="evenodd" d="M291.628 158.733C291.483 158.735 291.34 158.768 291.209 158.831C291.079 158.884 290.963 158.964 290.866 159.065C290.772 159.165 290.696 159.282 290.643 159.409C290.593 159.539 290.571 159.678 290.578 159.817V160.177L292.02 160.128V160.82L290.578 160.864L290.648 162.968H289.935L289.832 159.817C289.819 159.585 289.858 159.352 289.946 159.136C290.034 158.932 290.159 158.747 290.316 158.591C290.652 158.258 291.101 158.063 291.574 158.046H291.928V158.744L291.628 158.733Z" fill="white"/>
<path fill-rule="evenodd" clip-rule="evenodd" d="M294.073 159.381C294.312 159.369 294.552 159.408 294.775 159.496C294.992 159.577 295.192 159.699 295.363 159.855C295.535 160.006 295.672 160.192 295.766 160.4C295.87 160.609 295.926 160.838 295.929 161.071C295.942 161.304 295.901 161.537 295.809 161.752C295.723 161.955 295.6 162.14 295.445 162.297C295.282 162.468 295.087 162.604 294.871 162.697C294.655 162.791 294.423 162.84 294.187 162.842L293.098 162.875L293.142 164.276H292.429L292.325 161.125C292.315 160.893 292.354 160.66 292.44 160.444C292.527 160.242 292.651 160.057 292.805 159.899C292.961 159.737 293.145 159.604 293.349 159.507C293.579 159.414 293.825 159.371 294.073 159.381ZM294.165 162.183C294.31 162.177 294.452 162.146 294.585 162.09C294.712 162.036 294.827 161.956 294.922 161.856C295.021 161.757 295.097 161.638 295.145 161.507C295.198 161.373 295.224 161.231 295.222 161.087C295.216 160.949 295.181 160.813 295.118 160.689C295.064 160.562 294.98 160.45 294.873 160.362C294.774 160.266 294.655 160.191 294.525 160.144C294.388 160.092 294.241 160.068 294.095 160.073C293.95 160.078 293.807 160.111 293.676 160.172C293.549 160.227 293.434 160.306 293.338 160.406C293.243 160.506 293.168 160.622 293.115 160.749C293.065 160.88 293.043 161.019 293.049 161.158L293.082 162.215L294.165 162.183Z" fill="white"/>
<path fill-rule="evenodd" clip-rule="evenodd" d="M310.028 158.875C310.266 158.861 310.505 158.902 310.725 158.995C310.944 159.07 311.144 159.19 311.313 159.349C311.647 159.664 311.843 160.099 311.857 160.559L311.912 162.308H311.204L311.144 160.559C311.127 160.28 311.005 160.019 310.801 159.828C310.699 159.734 310.579 159.662 310.447 159.616C310.312 159.563 310.168 159.538 310.023 159.545C309.876 159.55 309.732 159.584 309.598 159.643C309.474 159.7 309.361 159.779 309.266 159.878C309.171 159.977 309.096 160.094 309.043 160.221C308.993 160.351 308.971 160.49 308.977 160.63L309.032 162.379H308.324L308.264 160.63C308.261 160.489 308.226 160.351 308.161 160.226C308.107 160.1 308.025 159.989 307.921 159.899C307.822 159.804 307.703 159.732 307.573 159.687C307.436 159.632 307.29 159.607 307.143 159.61C306.998 159.615 306.856 159.648 306.724 159.709C306.597 159.767 306.483 159.848 306.386 159.948C306.291 160.046 306.216 160.161 306.163 160.286C306.114 160.417 306.092 160.556 306.098 160.695L306.158 162.445H305.445L305.385 160.695C305.377 160.463 305.416 160.231 305.499 160.014C305.672 159.586 306.007 159.243 306.43 159.06C306.647 158.958 306.882 158.903 307.121 158.896C307.4 158.888 307.676 158.944 307.93 159.059C308.184 159.174 308.408 159.346 308.586 159.561C308.741 159.334 308.948 159.147 309.19 159.016C309.454 158.902 309.741 158.854 310.028 158.875Z" fill="white"/>
<path fill-rule="evenodd" clip-rule="evenodd" d="M325.134 160.161C325.125 159.932 325.162 159.703 325.245 159.489C325.327 159.276 325.453 159.081 325.613 158.918C325.767 158.752 325.952 158.619 326.158 158.526C326.372 158.422 326.606 158.366 326.844 158.362C327.085 158.353 327.326 158.394 327.551 158.482C327.767 158.56 327.965 158.681 328.134 158.836C328.305 158.988 328.442 159.173 328.537 159.381C328.64 159.591 328.697 159.819 328.705 160.052C328.712 160.286 328.67 160.518 328.58 160.733C328.498 160.938 328.374 161.124 328.215 161.278C328.061 161.444 327.876 161.579 327.671 161.676C327.453 161.774 327.218 161.827 326.98 161.834C326.741 161.84 326.502 161.802 326.277 161.72C326.062 161.635 325.863 161.514 325.69 161.36C325.524 161.203 325.388 161.019 325.287 160.815C325.194 160.609 325.142 160.387 325.134 160.161ZM325.837 160.161C325.842 160.302 325.873 160.44 325.929 160.57C325.99 160.694 326.073 160.807 326.174 160.902C326.281 160.994 326.402 161.068 326.533 161.12C326.67 161.166 326.814 161.189 326.958 161.185C327.104 161.18 327.248 161.149 327.383 161.093C327.509 161.035 327.624 160.954 327.72 160.853C327.818 160.754 327.892 160.635 327.938 160.504C327.993 160.373 328.019 160.232 328.014 160.09C328.011 159.951 327.975 159.815 327.911 159.692C327.858 159.565 327.776 159.453 327.671 159.365C327.57 159.268 327.449 159.194 327.317 159.147C327.185 159.096 327.045 159.07 326.904 159.071C326.759 159.075 326.616 159.108 326.484 159.169C326.353 159.224 326.235 159.306 326.136 159.409C326.042 159.507 325.966 159.621 325.913 159.747C325.853 159.877 325.82 160.018 325.815 160.161H325.837Z" fill="white"/>
<path fill-rule="evenodd" clip-rule="evenodd" d="M321.65 159.245C321.513 159.279 321.383 159.341 321.271 159.427C321.158 159.513 321.065 159.622 320.997 159.746C320.916 159.884 320.871 160.039 320.866 160.199L321.253 160.09L321.797 159.937L322.374 159.774L322.81 159.665C322.675 159.478 322.484 159.338 322.265 159.267C322.067 159.2 321.853 159.193 321.65 159.245ZM322.439 161.943C322.211 162.006 321.973 162.026 321.737 162.003C321.502 161.977 321.275 161.905 321.068 161.79C320.859 161.68 320.674 161.53 320.523 161.349C320.376 161.169 320.267 160.961 320.202 160.738C320.137 160.516 320.121 160.281 320.153 160.052C320.213 159.596 320.45 159.183 320.812 158.902C320.997 158.751 321.212 158.644 321.443 158.586C321.672 158.522 321.91 158.503 322.145 158.531C322.378 158.559 322.603 158.629 322.81 158.738C323.018 158.847 323.202 158.995 323.354 159.174C323.506 159.354 323.617 159.564 323.681 159.79L323.779 160.117L321.057 160.869C321.182 161.048 321.359 161.185 321.563 161.262C321.785 161.33 322.022 161.33 322.243 161.262C322.458 161.203 322.649 161.077 322.788 160.902L323.675 160.662C323.602 160.967 323.449 161.246 323.232 161.471C323.014 161.696 322.741 161.859 322.439 161.943Z" fill="white"/>
<path fill-rule="evenodd" clip-rule="evenodd" d="M312.243 160.564C312.236 160.332 312.274 160.1 312.358 159.883C312.447 159.68 312.573 159.496 312.728 159.338C312.882 159.174 313.067 159.042 313.272 158.951C313.488 158.846 313.724 158.79 313.964 158.787C314.204 158.777 314.443 158.817 314.666 158.907C314.884 158.984 315.084 159.105 315.254 159.262C315.421 159.417 315.555 159.604 315.648 159.811C315.742 160.019 315.793 160.244 315.798 160.472C315.804 160.702 315.764 160.932 315.681 161.147C315.598 161.362 315.473 161.558 315.314 161.725C315.159 161.891 314.974 162.026 314.769 162.123C314.552 162.221 314.316 162.273 314.078 162.276C313.839 162.287 313.6 162.25 313.376 162.167C312.941 162.002 312.586 161.676 312.385 161.256C312.294 161.037 312.246 160.802 312.243 160.564ZM312.951 160.564C312.952 160.706 312.984 160.845 313.044 160.973C313.104 161.098 313.187 161.21 313.289 161.305C313.393 161.397 313.513 161.471 313.642 161.523C313.781 161.57 313.927 161.591 314.072 161.583C314.217 161.582 314.359 161.553 314.492 161.496C314.619 161.44 314.734 161.358 314.829 161.256C314.929 161.159 315.004 161.04 315.047 160.908C315.105 160.778 315.131 160.635 315.123 160.493C315.122 160.352 315.087 160.214 315.02 160.09C314.966 159.966 314.884 159.856 314.78 159.768C314.68 159.67 314.559 159.596 314.426 159.55C314.292 159.496 314.147 159.472 314.002 159.48C313.857 159.484 313.714 159.517 313.583 159.578C313.451 159.629 313.333 159.711 313.24 159.817C313.142 159.913 313.066 160.028 313.016 160.155C312.97 160.279 312.947 160.41 312.951 160.542V160.564Z" fill="white"/>
<path d="M304.122 160.646C304.166 161.379 303.99 162.109 303.618 162.743C303.245 163.376 302.692 163.884 302.03 164.201C301.368 164.518 300.626 164.63 299.9 164.523C299.174 164.416 298.496 164.095 297.953 163.6C297.41 163.106 297.027 162.46 296.853 161.746C296.678 161.033 296.72 160.283 296.973 159.593C297.226 158.903 297.679 158.304 298.273 157.874C298.868 157.443 299.577 157.199 300.311 157.174C300.789 157.15 301.268 157.221 301.718 157.382C302.169 157.544 302.584 157.793 302.938 158.116C303.292 158.439 303.579 158.828 303.782 159.263C303.985 159.697 304.101 160.167 304.122 160.646Z" fill="#80BC00"/>
<path d="M301.03 163.131C300.603 162.528 300.344 161.823 300.279 161.087C300.259 160.959 300.265 160.828 300.298 160.702C300.331 160.576 300.389 160.459 300.47 160.356C300.55 160.254 300.65 160.17 300.764 160.108C300.878 160.046 301.004 160.008 301.133 159.997C301.346 159.997 301.814 160.095 301.906 160.826C301.988 161.469 301.988 163.006 301.988 163.006L302.374 162.897C302.374 162.897 302.402 162.101 302.456 161.376C302.5 160.831 302.511 160.09 302.892 159.883C303.403 159.605 303.621 160.019 303.648 160.515C303.699 161.05 303.575 161.588 303.294 162.047C303.213 162.161 303.14 162.281 303.077 162.406C303.331 162.244 303.551 162.032 303.722 161.783C303.893 161.535 304.012 161.254 304.073 160.958C304.133 160.662 304.134 160.357 304.074 160.06C304.014 159.764 303.895 159.483 303.724 159.234C303.617 159.098 303.463 159.006 303.293 158.976C303.122 158.946 302.947 158.98 302.799 159.071C302.543 159.222 302.323 159.429 302.157 159.676C302.08 159.549 301.976 159.443 301.851 159.364C301.726 159.286 301.585 159.237 301.438 159.223C301.123 159.174 300.801 159.218 300.511 159.349C300.221 159.481 299.975 159.695 299.805 159.964C299.612 160.225 299.482 160.525 299.423 160.844C299.365 161.162 299.38 161.49 299.468 161.801C299.615 162.284 299.827 162.744 300.099 163.169L301.03 163.131Z" fill="white"/>
<path fill-rule="evenodd" clip-rule="evenodd" d="M319.691 157.185L319.794 160.324C319.804 160.557 319.764 160.79 319.674 161.006C319.591 161.218 319.467 161.413 319.31 161.578C319.155 161.744 318.971 161.879 318.765 161.976C318.547 162.072 318.312 162.126 318.074 162.134C317.835 162.14 317.596 162.101 317.372 162.019C317.154 161.938 316.955 161.816 316.784 161.66C316.611 161.507 316.47 161.322 316.37 161.115C316.275 160.903 316.222 160.676 316.212 160.444C316.205 160.212 316.244 159.98 316.326 159.763C316.414 159.558 316.542 159.373 316.702 159.218C317.035 158.883 317.483 158.689 317.954 158.673L319.043 158.64L318.994 157.239L319.691 157.185ZM318.057 161.442C318.2 161.437 318.34 161.406 318.471 161.349C318.598 161.293 318.712 161.213 318.809 161.115C318.906 161.016 318.98 160.897 319.026 160.766C319.084 160.634 319.111 160.49 319.103 160.346L319.07 159.3L317.981 159.332C317.835 159.336 317.69 159.369 317.557 159.43C317.429 159.487 317.313 159.567 317.214 159.665C317.119 159.763 317.045 159.88 316.996 160.008C316.944 160.138 316.92 160.277 316.925 160.417C316.93 160.558 316.963 160.697 317.023 160.826C317.081 160.951 317.163 161.063 317.263 161.158C317.369 161.251 317.49 161.325 317.622 161.376C317.755 161.424 317.895 161.446 318.036 161.442H318.057Z" fill="white"/>
<path fill-rule="evenodd" clip-rule="evenodd" d="M324.138 161.943L324.046 159.142L324.018 158.449L323.975 157.049H324.688L324.846 161.954" fill="white"/>
<path d="M278.068 167.835C278.013 167.835 293.359 130.32 285.341 118.94C285.341 118.94 282.374 113.555 277.327 121.18C271.225 130.402 262.161 162.008 262.161 162.008C262.161 162.008 268.438 171.356 278.068 167.835Z" fill="#1A171C"/>
<path style="mix-blend-mode:multiply" opacity="0.3" d="M340.17 161.943C340.17 161.943 321.846 141.144 331.068 116.16L339.233 157.163L340.17 161.943Z" fill="url(#paint1_linear)"/>
<path d="M334.987 115.468C324.394 115.713 337.96 133.252 343.97 168.151C345.162 175.062 349.277 190.46 349.315 197.97C351.923 207.17 360.039 202.33 359.985 199.42C359.724 185.516 350.213 115.119 334.987 115.468Z" fill="#F3C49F"/>
<path d="M356.446 217.002C358.222 207.903 360.231 197.228 360.464 194.498C359.896 189.616 349.869 189.477 349.245 194.236C347.883 204.804 347.366 228.384 347.366 228.384L353.682 230.978C353.682 230.978 354.982 224.53 356.446 217.006" fill="#F3C49F"/>
<path d="M356.805 158.951C359.179 166.347 341.683 164.701 341.683 164.701C333.278 150.53 330.295 126.357 330.295 117.092C330.733 116.45 331.287 115.896 331.928 115.457C333.61 114.307 336.555 113.489 340.638 116.803C347.377 122.27 356.805 158.951 356.805 158.951Z" fill="#1A171C"/>
<path style="mix-blend-mode:multiply" opacity="0.2" d="M281.302 223.385C281.302 223.385 284.481 224.786 285.961 224.699C285.961 224.699 292.652 197.218 280.572 161.082L278.068 167.862C278.068 167.862 289.543 195.463 281.302 223.385Z" fill="url(#paint2_linear)"/>
<defs>
<linearGradient id="paint0_linear" x1="346.4" y1="123.771" x2="346.504" y2="123.761" gradientUnits="userSpaceOnUse">
<stop stop-color="#D1A211"/>
<stop offset="1" stop-color="#D1A211" stop-opacity="0"/>
</linearGradient>
<linearGradient id="paint1_linear" x1="3379.83" y1="10705.3" x2="3631.19" y2="10705.3" gradientUnits="userSpaceOnUse">
<stop stop-opacity="0"/>
<stop offset="1"/>
</linearGradient>
<linearGradient id="paint2_linear" x1="1917.42" y1="21155.9" x2="2091.69" y2="21155.9" gradientUnits="userSpaceOnUse">
<stop stop-opacity="0"/>
<stop offset="1"/>
</linearGradient>
</defs>
</svg>
